PathFileType	4	(X/Y/Z)	D:\telocate\uwb04-Unnamed.trc
DataRate	CameraRate	NumFrames	NumMarkers	Units	OrigDataRate	OrigDataStartFrame	OrigNumFrames
100.00	100.00	     214	0	mm	100.00	7513	     10016
Frame#	Time	
		

7513	75.120	3649.87231	540.62207	1129.05981	
7514	75.130	3649.78516	536.36053	1128.84277	
7515	75.140	3649.22729	532.25079	1129.68970	
7516	75.150	3649.87329	528.12439	1129.67566	
7517	75.160	3649.27686	523.65259	1129.57458	
7518	75.170	3649.23657	519.18262	1130.05640	
7519	75.180	3651.36499	514.04034	1130.01660	
7520	75.190	3653.81860	510.08688	1128.02234	
7521	75.200	3649.92896	504.59491	1130.30115	
7522	75.210	3650.45142	500.23959	1130.70117	
7523	75.220	3650.27979	495.49329	1130.24963	
7524	75.230	3650.22656	491.44882	1130.32776	
7525	75.240	3651.70630	487.20255	1130.04089	
7526	75.250	3650.59448	482.38974	1129.92456	
7527	75.260	3650.98022	477.37180	1129.58582	
7528	75.270	3651.51636	473.44003	1130.22400	
7529	75.280	3651.99951	469.80975	1130.23340	
7530	75.290	3652.20361	465.37778	1130.17957	
7531	75.300	3652.81128	461.91855	1130.64502	
7532	75.310	3653.97021	458.43094	1130.29419	
7533	75.320	3653.70605	454.02014	1130.21985	
7534	75.330	3654.54492	450.60876	1129.65833	
7535	75.340	3654.68677	445.95050	1128.96985	
7536	75.350	3653.90698	442.44156	1129.32922	
7537	75.360	3655.78833	438.33655	1128.57300	
7538	75.370	3654.86938	433.94049	1129.43579	
7539	75.380	3655.98193	430.31195	1128.72900	
7540	75.390	3655.83716	426.49438	1128.99939	
7541	75.400	3657.50415	422.21445	1127.73560	
7542	75.410	3656.17773	418.40384	1127.63904	
7543	75.420	3656.72046	413.77902	1127.96619	
7544	75.430	3657.99390	409.95013	1126.72620	
7545	75.440	3658.06885	406.17609	1127.04187	
7546	75.450	3658.36499	402.39703	1125.95264	
7547	75.460	3659.28809	398.07489	1126.83423	
7548	75.470	3660.03662	394.75488	1126.85303	
7549	75.480	3660.40381	390.71896	1126.25220	
7550	75.490	3661.76440	386.45703	1126.62256	
7551	75.500	3662.39404	382.47592	1126.15576	
7552	75.510	3664.63843	378.57166	1125.05566	
7553	75.520	3664.90430	374.06750	1124.70813	
7554	75.530	3664.29126	370.73477	1124.35034	
7555	75.540	3665.68530	366.82831	1124.24292	
7556	75.550	3667.46338	362.26138	1124.70239	
7557	75.560	3667.44629	359.34680	1125.30676	
7558	75.570	3668.44751	355.39993	1124.39490	
7559	75.580	3669.18091	351.09952	1125.22961	
7560	75.590	3670.13770	348.18396	1124.79529	
7561	75.600	3670.63623	343.41934	1125.24255	
7562	75.610	3671.53271	340.05167	1125.50073	
7563	75.620	3672.33203	336.14368	1125.27234	
7564	75.630	3673.02930	330.93274	1124.92651	
7565	75.640	3672.55444	327.41650	1126.56384	
7566	75.650	3673.13892	323.73273	1125.87976	
7567	75.660	3673.91089	318.76779	1126.17859	
7568	75.670	3675.38184	315.39981	1126.94385	
7569	75.680	3676.00684	311.43051	1126.58044	
7570	75.690	3676.51636	306.64740	1126.24097	
7571	75.700	3678.98462	302.55200	1126.63440	
7572	75.710	3678.30981	298.11603	1126.78027	
7573	75.720	3681.27832	293.94067	1125.42773	
7574	75.730	3680.22290	289.30212	1126.71216	
7575	75.740	3682.21729	284.28717	1126.48914	
7576	75.750	3682.96655	280.48499	1126.70447	
7577	75.760	3684.66577	275.97672	1125.82483	
7578	75.770	3686.99902	271.58408	1126.27734	
7579	75.780	3686.36890	267.20935	1126.51831	
7580	75.790	3688.05762	263.06604	1126.42627	
7581	75.800	3689.22192	259.56342	1127.20679	
7582	75.810	3690.32593	255.59457	1127.09412	
7583	75.820	3692.55811	251.82813	1127.62769	
7584	75.830	3693.65063	247.67047	1127.41541	
7585	75.840	3696.20288	244.50801	1128.06348	
7586	75.850	3698.88013	240.90872	1128.26648	
7587	75.860	3700.38428	236.84702	1129.38672	
7588	75.870	3700.84058	233.54698	1130.00439	
7589	75.880	3702.96338	230.35603	1129.56226	
7590	75.890	3703.84424	226.80168	1130.08374	
7591	75.900	3706.46997	222.76242	1129.70215	
7592	75.910	3708.25415	218.66174	1130.32617	
7593	75.920	3715.50024	214.87970	1127.91406	
7594	75.930	3717.88525	209.09317	1126.84143	
7595	75.940	3720.73926	204.67207	1126.13623	
7596	75.950	3723.07544	199.55957	1126.01770	
7597	75.960	3723.17749	195.89351	1126.51709	
7598	75.970	3724.60156	192.10936	1126.58679	
7599	75.980	3723.07471	187.29317	1128.07971	
7600	75.990	3727.79224	181.98059	1125.77612	
7601	76.000	3726.73877	179.28926	1127.41431	
7602	76.010	3728.16309	174.15405	1127.13025	
7603	76.020	3729.64697	169.29576	1127.65625	
7604	76.030	3732.34033	163.86261	1126.99609	
7605	76.040	3731.92798	160.34674	1128.22217	
7606	76.050	3735.60376	156.77267	1125.86426	
7607	76.060	3736.03760	151.96733	1127.17981	
7608	76.070	3736.86401	148.64503	1127.63831	
7609	76.080	3737.90039	145.27446	1127.87732	
7610	76.090	3739.72046	140.54715	1127.92407	
7611	76.100	3739.58984	137.75751	1128.55530	
7612	76.110	3741.58838	134.38838	1128.53540	
7613	76.120	3740.68530	132.07732	1131.15540	
7614	76.130	3743.57935	127.29532	1130.02454	
7615	76.140	3742.44214	124.88360	1132.34082	
7616	76.150				3734.44995	120.41058	1135.64331	
7617	76.160				3735.22656	116.82195	1137.07422	
7618	76.170				3736.34448	113.82777	1136.24390	
7619	76.180				3737.70532	109.24847	1136.68994	
7620	76.190				3740.86304	105.93604	1136.27417	
7621	76.200				3740.26025	102.14811	1136.34131	
7622	76.210				3742.17236	97.31740	1136.27698	
7623	76.220				3743.18823	93.01501	1136.42554	
7624	76.230				3745.30713	88.31349	1135.28284	
7625	76.240				3745.23169	83.66315	1135.72644	
7626	76.250				3745.51221	79.05424	1134.58765	
7627	76.260				3746.90259	73.77407	1134.23547	
7628	76.270				3747.37744	69.27255	1133.75574	
7629	76.280				3749.32007	64.43635	1133.79065	
7630	76.290				3749.79126	59.99273	1133.77026	
7631	76.300				3749.96069	55.25571	1132.53516	
7632	76.310				3751.59619	50.28241	1131.69019	
7633	76.320				3751.32910	45.47675	1131.62073	
7634	76.330				3754.11523	40.93200	1131.19922	
7635	76.340				3753.57251	36.64480	1130.78735	
7636	76.350				3754.14258	31.80281	1131.41614	
7637	76.360				3755.38403	27.44447	1131.54736	
7638	76.370				3755.91479	22.83534	1130.95959	
7639	76.380				3756.38550	18.05411	1130.21069	
7640	76.390				3756.72412	12.73230	1130.20825	
7641	76.400				3757.22949	9.32465	1130.16296	
7642	76.410				3758.17822	4.12266	1129.76782	
7643	76.420				3758.02417	-0.37611	1130.11731	
7644	76.430				3758.91138	-5.13404	1129.46606	
7645	76.440				3759.78491	-9.57014	1129.58484	
7646	76.450				3759.52148	-14.24911	1128.96375	
7647	76.460				3759.39575	-19.45280	1128.84375	
7648	76.470				3759.13037	-24.20908	1127.86963	
7649	76.480				3758.60498	-28.86913	1128.28284	
7650	76.490				3760.14258	-33.31584	1128.67908	
7651	76.500				3759.67871	-37.67237	1128.08508	
7652	76.510				3760.22803	-42.18504	1128.48926	
7653	76.520				3758.78198	-47.36123	1129.21277	
7654	76.530				3759.87427	-51.30869	1129.08447	
7655	76.540				3758.84814	-55.45935	1129.00745	
7656	76.550				3759.39111	-59.98940	1129.44324	
7657	76.560				3758.50952	-63.88279	1129.62317	
7658	76.570				3757.09644	-67.52284	1130.67383	
7659	76.580				3757.75708	-71.45570	1131.55994	
7660	76.590				3757.21411	-74.95045	1131.67957	
7661	76.600				3756.17749	-78.64633	1132.78125	
7662	76.610				3755.58740	-81.85025	1133.02429	
7663	76.620				3755.23218	-86.54782	1133.57092	
7664	76.630				3755.95801	-90.38889	1134.28821	
7665	76.640				3753.26978	-94.06241	1134.95728	
7666	76.650				3752.77295	-98.30263	1135.38757	
7667	76.660				3753.01733	-102.23751	1135.83911	
7668	76.670				3751.04028	-106.08094	1135.78748	
7669	76.680				3750.42969	-110.92421	1135.49744	
7670	76.690				3749.67505	-115.25510	1135.62097	
7671	76.700				3748.23364	-120.03705	1135.46008	
7672	76.710				3747.12915	-123.93456	1136.18506	
7673	76.720				3745.07129	-128.81271	1136.03247	
7674	76.730				3745.63892	-133.50545	1136.16699	
7675	76.740				3744.52539	-137.90820	1136.15491	
7676	76.750				3743.45483	-142.80312	1136.01782	
7677	76.760				3741.93579	-147.89516	1136.47046	
7678	76.770				3741.28711	-151.93442	1135.87000	
7679	76.780				3739.99194	-156.17673	1136.13159	
7680	76.790				3738.81787	-160.64297	1135.54529	
7681	76.800				3738.76074	-165.38979	1135.30432	
7682	76.810				3736.78979	-169.34637	1135.95789	
7683	76.820				3736.34326	-173.56554	1135.67053	
7684	76.830				3736.20679	-177.33194	1135.64954	
7685	76.840				3735.06372	-181.20650	1135.32666	
7686	76.850				3733.33179	-185.87892	1136.06213	
7687	76.860				3733.21411	-188.52077	1136.19031	
7688	76.870				3732.27148	-192.42563	1135.85229	
7689	76.880				3732.14478	-196.57040	1135.83118	
7690	76.890				3731.34106	-200.08578	1135.85193	
7691	76.900				3729.90210	-204.13751	1135.45032	
7692	76.910				3730.62720	-207.57913	1135.70264	
7693	76.920				3728.66919	-211.46283	1136.25134	
7694	76.930				3728.40869	-214.96042	1135.91357	
7695	76.940				3728.55518	-217.47574	1135.03564	
7696	76.950				3727.67358	-221.08287	1135.97449	
7697	76.960				3727.58594	-224.70773	1136.34131	
7698	76.970				3726.47412	-228.76091	1136.43811	
7699	76.980				3725.38525	-230.89825	1136.16577	
7700	76.990				3725.66040	-234.85501	1136.13049	
7701	77.000				3725.37769	-237.19281	1136.32166	
7702	77.010				3724.96533	-241.34358	1136.58093	
7703	77.020				3724.83887	-243.39618	1136.11548	
7704	77.030				3724.23071	-246.60905	1136.01074	
7705	77.040				3722.72095	-249.33211	1136.48511	
7706	77.050				3723.74854	-252.87398	1136.12854	
7707	77.060				3723.22681	-255.99306	1136.07141	
7708	77.070				3722.48779	-258.83374	1136.59875	
7709	77.080				3721.29395	-261.80234	1137.19983	
7710	77.090				3722.47119	-265.25839	1137.57581	
7711	77.100				3722.14795	-268.51886	1137.92468	
7712	77.110				3722.16406	-271.66135	1137.81897	
7713	77.120				3722.14526	-275.11664	1137.56445	
7714	77.130				3722.08032	-278.84064	1137.66138	
7715	77.140				3721.98730	-282.70291	1137.61609	
7716	77.150				3721.47925	-285.53400	1136.57996	
7717	77.160				3720.42114	-289.95038	1137.06616	
7718	77.170				3721.73438	-293.43243	1136.75964	
7719	77.180				3720.95264	-297.24182	1136.70264	
7720	77.190				3719.94263	-300.48578	1136.47473	
7721	77.200				3721.36353	-304.00461	1136.69312	
7722	77.210				3721.72998	-308.32108	1136.00818	
7723	77.220				3721.30981	-312.56161	1135.39331	
7724	77.230				3721.96851	-317.11542	1135.52026	
7725	77.240				3721.69434	-321.55844	1134.96179	
7726	77.250				3722.35132	-324.92505	1134.63196	
